<svg xmlns="http://www.w3.org/2000/svg" xmlns:xlink="http://www.w3.org/1999/xlink" version="1.1" width="612pt" height="792pt" viewBox="0 0 612 792">
<defs>
<clipPath id="clip_0">
<path transform="matrix(1,0,0,-1,0,792)" d="M0 0H612V792H0Z"/>
</clipPath>
<clipPath id="clip_1">
<path transform="matrix(1,0,0,-1,0,792)" d="M66.75 72H545.25V725.25H66.75Z"/>
</clipPath>
</defs>
<g clip-path="url(#clip_0)">
<path transform="matrix(1,0,0,-1,0,792)" d="M0 792H612V0H0Z" fill="#ffffff"/>
</g>
<g clip-path="url(#clip_1)">
<text xml:space="preserve" transform="matrix(1 0 -0 1 72 92.17041)" font-size="21" font-family="Helvetica"><tspan y="0" x="0 19.819802 24.486002 29.152203 33.8184 38.4846 50.164804 67.65781 73.12411 85.950908 97.63111 109.31132 126.80432 138.48451 148.98451 154.81832 168.82532 173.49152 185.1717 196.8519">William Thomas Plant</tspan></text>
<text xml:space="preserve" transform="matrix(1 0 -0 1 72 106.700199)" font-size="10" font-family="Helvetica"><tspan y="0" x="0 7.2220008 10.000001 15.562001 17.784003 23.346003 28.908003 31.686003 41.837007 47.399007 55.729009 61.291009 63.51301 65.73501 68.51301 71.11101 73.88901 79.451007 85.013 90.575 93.905 99.466999 105.02899 110.59099 113.92099 119.48299 125.04498 130.60698 136.16898 138.94698 141.54499 144.32299 151.54499 153.76699 155.98899 158.21099 160.43299 165.99498 174.32498 179.88698 182.10898 187.67098 193.23297 196.01097 198.78897 204.35097 209.91297">wtplant@gmail | 917-238-2426 | williamplant.net</tspan></text>
<text xml:space="preserve" transform="matrix(1 0 -0 1 72 131.294)" font-size="11" font-family="HelveticaNeue" font-weight="bold"><tspan y="0" x="0 7.1390006 13.662001 20.383002 27.104002 33.825 38.104">Support</tspan></text>
<text xml:space="preserve" transform="matrix(1 0 -0 1 72 131.294)" font-size="11" font-family="HelveticaNeue" font-weight="bold"><tspan y="0" x="41.976"> </tspan></text>
<text xml:space="preserve" transform="matrix(1 0 -0 1 72 131.294)" font-size="11" font-family="HelveticaNeue" font-weight="bold"><tspan y="0" x="45.034 51.557 57.871 63.591 69.905">Level</tspan></text>
<text xml:space="preserve" transform="matrix(1 0 -0 1 72 131.294)" font-size="11" font-family="HelveticaNeue" font-weight="bold"><tspan y="0" x="72.743"> </tspan></text>
<text xml:space="preserve" transform="matrix(1 0 -0 1 72 131.294)" font-size="11" font-family="HelveticaNeue" font-weight="bold"><tspan y="0" x="75.801 79.046009">II</tspan></text>
<text xml:space="preserve" transform="matrix(1 0 -0 1 72 131.294)" font-size="11" font-family="HelveticaNeue" font-weight="bold"><tspan y="0" x="82.291"> </tspan></text>
<text xml:space="preserve" transform="matrix(1 0 -0 1 72 131.294)" font-size="11" font-family="HelveticaNeue" font-weight="bold"><tspan y="0" x="85.349 93.907 100.43 103.268 109.582 115.896 124.047008 130.768 137.489">QuickNode</tspan></text>
<text xml:space="preserve" transform="matrix(1 0 -0 1 72 131.294)" font-size="11" font-family="HelveticaNeue" font-weight="bold"><tspan y="0" x="143.803"> </tspan></text>
<text xml:space="preserve" transform="matrix(1 0 -0 1 72 131.294)" font-size="11" font-family="HelveticaNeue"><tspan y="0" x="146.861 156.44199 158.88399 164.79099 174.17398 176.61598 179.67398 182.73198 189.04598 195.16197 198.21997 200.66197 203.71997 211.25498 217.16197 226.54497 232.85897 236.32396 242.23096 245.28896 248.34696 255.47496 261.99797 265.66096 268.71897 274.83497 280.95097 287.06697 293.18296 296.24098 300.51997 303.57798 311.51997 317.83396 323.33396 329.24098 338.62397 345.14698 351.054 354.71699 357.775 363.891 370.007 376.123">Miami, FL | Remote, Apr 2022 - November 2023</tspan></text>
<text xml:space="preserve" transform="matrix(1 0 -0 1 72 131.294)" font-size="11" font-family="HelveticaNeue" font-weight="bold"><tspan y="0" x="382.239"> </tspan></text>
<text xml:space="preserve" transform="matrix(1 0 -0 1 72 143.349)" font-size="11" font-family="HelveticaNeue"><tspan y="0" x="0 7.1280004 10.593 13.651001 22.011002 28.127003 30.569003 36.476 42.185 50.127004 56.441 62.964006 68.871 71.929 74.987 77.836 80.894 87.417 89.859 95.766 101.266 107.173 113.696 116.754 122.660999 125.718997 132.24199 134.68399 140.18399 146.49799 149.96298 155.86998 158.31198 161.36998 164.83498 171.14897 173.59098 179.49797 182.55597 184.99797 191.11397 194.17197 200.07897 206.19496 211.69496 217.81096 221.47396 223.91596 230.03195 236.34595 239.40395 245.71794 251.83394 255.29894 260.79896 264.26396 270.17097 276.28697 282.80998 285.25196 291.36796 297.68196 300.73997 306.64698 312.76298 318.26298 321.72798 328.04197 337.42497 343.33198 346.99497 350.05299 355.96 361.658 368.181 374.088 377.751 380.193 386.1 392.216 398.12303 404.03004 409.53004 412.58805 420.92607 423.36805 426.83305 432.94905 435.39103 441.50703 444.56504 450.47206">At QuickNode, I played a pivotal role in ensuring outstanding customer experiences within a </tspan></text>
<text xml:space="preserve" transform="matrix(1 0 -0 1 72 155.349)" font-size="11" font-family="HelveticaNeue"><tspan y="0" x="0 6.1160008 12.023001 15.488001 23.826 30.14 33.803 39.512 42.57 46.035 52.151 58.058004 61.523004 64.581 70.697 76.604 82.71999 89.243 91.685 97.591999 104.115 107.173 113.487 118.987 124.894 128.55699 131.61499 137.73099 143.84699 146.90499 153.42798 155.86998 158.31198 160.75399 163.19599 169.50998 175.62598 178.68398 188.06697 194.38097 200.49697 203.96196 210.07796 212.51996 218.01996 221.07796 224.54296 230.44995 236.97295 243.08895 248.99594 254.49594 257.96095 263.46095 266.51896 269.57698 279.13597 285.44996 289.11296 294.82197 297.26396 303.37995 309.69395 312.75196 321.08998 323.53196 326.99696 333.11296 336.17097 342.07798 344.51997 346.96195 352.86897 358.98497 362.44996 367.94996 371.00798 376.50798 382.62397 388.53099 394.64698 397.705 403.612 409.112 412.17 420.112 426.426 428.86799 434.98399 441.507 447.414 452.914 458.821 461.87904">network that handled over 10 billion monthly requests. Working with clients such as Coinbase, </tspan></text>
<text xml:space="preserve" transform="matrix(1 0 -0 1 72 167.349)" font-size="11" font-family="HelveticaNeue"><tspan y="0" x="0 8.360001 14.883001 20.79 26.906002 32.406003 38.313005 44.220006 47.278005 50.336004 56.243005 62.359006 68.882 71.94 80.289 86.603008 92.91701 99.23101 101.67301 107.58001 110.63801 113.69601 120.21901 126.33501 129.8 132.242 138.149 143.649 146.707 152.614 158.73 164.637 170.95099 180.33399 186.85698 192.76398 198.26398 203.76398 209.67098 216.19397 219.25197 225.15897 231.68196 238.20496 241.66996 247.57695 253.07695 258.57698 261.01896 267.13496 273.44895 276.50697 282.41398 288.52998 294.02998 297.49497 303.80897 313.19197 319.09898 322.76197 325.81999 328.26197 334.37797 340.90098 347.01698 349.45896 353.12196 355.56394 361.47096 366.97096 370.02897 375.93598 382.05198 388.57499 391.633 398.156 404.06303 410.58604 416.70204 423.01603 429.33003 431.772 437.888 444.202">Opensea, and Google, duties encompassed addressing customer inquiries and debugging </tspan></text>
<text xml:space="preserve" transform="matrix(1 0 -0 1 72 179.349)" font-size="11" font-family="HelveticaNeue"><tspan y="0" x="0 9.559001 15.4660019 21.989003 28.105004 31.163004 34.628004 40.535005 47.058008 53.174009 59.08101 64.58101 68.04601 73.54601 76.60401 80.069019 86.38302 89.44102 95.348018 101.66202 104.10402 106.54602 112.45302 118.97602 125.29002 128.95302 134.86002 138.32501 140.76702 146.88301 153.197 156.255 162.162 164.604 170.918 176.418 182.325 184.767 190.267 193.325 201.663 204.105 207.56999 213.68599 216.74399 222.65099 226.11598 232.42998 237.92998 243.42998 247.70899 250.96498 257.081 263.197 269.104 272.569 275.011 281.32499 287.44099 293.348 295.78999 298.848 302.313 308.22 314.127 323.51 329.01 332.06803 337.97505 344.09104 350.61405 353.67207 363.05506 368.96208 375.07807 380.98509 387.29908 389.74107 395.85707 402.17106">Web3 requests to collaborating closely with cross-functional teams and managing </tspan></text>
<text xml:space="preserve" transform="matrix(1 0 -0 1 72 191.349)" font-size="11" font-family="HelveticaNeue"><tspan y="0" x="0 2.4420002 8.558001 11.814001 15.477001 21.384 26.884 30.349 34.012 40.128004 46.035005 49.500005 55.616006 59.081007 64.98801 68.046009 71.104007 77.22 83.127 88.627 94.534 98.197 104.104 110.418 112.86 118.976 125.29 128.348 137.731 143.231 146.289 152.196 157.894 164.41699 170.32399 173.98699 177.45198 179.89398 185.39398 191.30098 194.35898 196.80098 202.91698 205.97498 211.47498 217.38198 221.04497 223.48697 230.00997 233.47496 235.91696 242.03296 248.34696 251.40496 253.84696 259.75398 265.86997 272.18397 278.29997 284.20698 290.52098 296.42799 301.92799 304.986 310.486 316.602 322.509 328.625 331.683 337.59004 343.09004 346.14805 353.27604 358.77604 362.24104 368.35704 374.67103 380.78703 383.84504 389.75205 395.25205 398.31007 406.64808 412.55509 414.99708 417.43907 420.49708 426.40409 431.90409 434.9621 444.3451 449.8451 452.9031 455.3451 461.4611">infrastructure. Leveraging my expertise in scripting languages such as Python as well as my in-</tspan></text>
<text xml:space="preserve" transform="matrix(1 0 -0 1 72 203.349)" font-size="11" font-family="HelveticaNeue"><tspan y="0" x="0 6.5230009 12.43 18.953001 22.418002 28.534003 31.592003 37.301004 43.417005 49.731004 58.069005 60.511007 66.41801 72.94101 79.25501 85.16201 88.22001 94.53401 97.79001 100.84801 103.29001 109.406009 112.87101 118.77801 122.63901 128.755 134.662 138.127 141.185 147.092 153.40599 156.87099 162.77799 165.83599 172.35898 175.82398 182.13797 185.60297 191.91696 197.82396 204.13796 206.57996 212.07996 215.13796 221.04496 227.16095 233.68395 236.74195 240.20694 246.32294 252.22994 255.28794 262.00895 265.47395 271.58995 277.49696 280.96195 286.86897 292.98497 302.36796 305.42597 311.13499 318.26298 326.623 334.56498 337.623 345.158 352.28599 360.22798 363.28599 368.78599 375.309 381.216 387.12303 390.18104 393.23905 396.08805 399.14607 405.05308 410.75108 416.65809 422.5651 425.00709 427.44908 433.35609 439.8791 442.9371 445.3791 451.4951">depth knowledge of internet core protocols and the Ethereum JSON RPC spec, I excelled in </tspan></text>
<text xml:space="preserve" transform="matrix(1 0 -0 1 72 215.349)" font-size="11" font-family="HelveticaNeue"><tspan y="0" x="0 6.5230009 12.43 14.872001 17.314002 22.814002 28.721 32.384004 34.826005 40.942007 47.256006 50.314004 53.779005 60.093004 66.616008 70.895008 74.36001 76.80201 82.70901 86.37201 89.43001 94.93001 101.046009 107.56901 114.09201 120.40601 124.069019 127.53402 130.59203 133.65003 143.23102 148.73102 151.78902 158.31201 161.77701">delivering top-tier support. My pro</tspan></text>
<text xml:space="preserve" transform="matrix(1 0 -0 1 72 215.349)" font-size="11" font-family="HelveticaNeue"><tspan y="0" x="168.091">&#xfb01;</tspan></text>
<text xml:space="preserve" transform="matrix(1 0 -0 1 72 215.349)" font-size="11" font-family="HelveticaNeue"><tspan y="0" x="173.789 179.696 182.138 188.045 194.161 200.068 205.568 208.62599 211.068 217.18399 220.24199 226.35799 228.79999 234.91599 241.03199 246.72998 249.78798 255.90398 262.218 267.718 271.18299 274.241 283.624 289.531 295.647 301.55403 307.868 313.77503 323.15803 329.06504 335.18104 338.64604 341.70405 344.76206 351.28507 354.75007 361.06407 366.97108 372.87809 376.34309 378.78507 384.28507 390.19209 393.2501 399.1571 401.5991 407.5061 411.1691 414.6341 417.07609 423.19209 429.50608 432.5641 435.6221 441.5291 447.6451 454.16813">ciency in Linux host management, proactive alerting, and </tspan></text>
<text xml:space="preserve" transform="matrix(1 0 -0 1 72 227.349)" font-size="11" font-family="HelveticaNeue"><tspan y="0" x="0 6.1160008 12.023001 18.139002 24.662003 30.162003 34.441 40.755 46.871004 49.929 55.836004 61.534006 68.05701 73.964008 77.62701 80.06901 85.976009 92.092 97.999 103.906 106.964 109.406 115.521999 118.579998 122.045 127.951999 133.859 139.97499 146.09099 148.53299 154.43999 160.34699 162.78899 165.84699 171.75399 177.86998 183.36998 186.83498 193.14897 202.53197 208.43897 212.10196 215.15996 220.65996 226.77596 233.29895 239.82195 246.13594 249.79894 253.26393 256.32194 262.22895 264.67094 267.1129 273.4269 281.76493 287.67195 294.19496 297.25297 306.63597 312.54298 315.60099 319.06599 325.37998 328.438 334.345 340.659 346.775 350.24 353.90299 356.34498 362.86799 368.98399 372.44898 378.356 381.414 386.914 389.356 395.66999 401.78599">hands-on experience in technical customer support allowed me to contribute signi</tspan></text>
<text xml:space="preserve" transform="matrix(1 0 -0 1 72 227.349)" font-size="11" font-family="HelveticaNeue"><tspan y="0" x="404.228">&#xfb01;</tspan></text>
<text xml:space="preserve" transform="matrix(1 0 -0 1 72 227.349)" font-size="11" font-family="HelveticaNeue"><tspan y="0" x="409.926 415.833 421.74003 427.85603 431.321 433.763 439.263 442.321 445.786 452.1">cantly to </tspan></text>
<text xml:space="preserve" transform="matrix(1 0 -0 1 72 239.349)" font-size="11" font-family="HelveticaNeue"><tspan y="0" x="0 6.314 12.43 16.093 19.151001 25.058 31.174002 36.674005 40.139005 46.453004 55.836004 61.743005 64.801 69.08 74.987 80.894 87.009998 90.475 94.138 96.58 102.487 105.545 111.451999 117.56799 120.009998 123.475 129.591 133.056 138.963">our customer-centric culture.</tspan></text>
<text xml:space="preserve" transform="matrix(1 0 -0 1 72 239.349)" font-size="11" font-family="HelveticaNeue"><tspan y="0" x="142.021">&#x000a;</tspan></text>
<text xml:space="preserve" transform="matrix(1 0 -0 1 72 264.294)" font-size="11" font-family="HelveticaNeue" font-weight="bold"><tspan y="0" x="0 9.977001 16.291 22.814002 29.128003 35.849004 42.163003">Managed</tspan></text>
<text xml:space="preserve" transform="matrix(1 0 -0 1 72 264.294)" font-size="11" font-family="HelveticaNeue" font-weight="bold"><tspan y="0" x="48.884"> </tspan></text>
<text xml:space="preserve" transform="matrix(1 0 -0 1 72 264.294)" font-size="11" font-family="HelveticaNeue" font-weight="bold"><tspan y="0" x="51.942 59.081 65.395008 69.674 75.394008 78.232 84.546009 90.86001">Services</tspan></text>
<text xml:space="preserve" transform="matrix(1 0 -0 1 72 264.294)" font-size="11" font-family="HelveticaNeue" font-weight="bold"><tspan y="0" x="96.767"> </tspan></text>
<text xml:space="preserve" transform="matrix(1 0 -0 1 72 264.294)" font-size="11" font-family="HelveticaNeue" font-weight="bold"><tspan y="0" x="99.825 107.976 116.534">NOC</tspan></text>
<text xml:space="preserve" transform="matrix(1 0 -0 1 72 264.294)" font-size="11" font-family="HelveticaNeue" font-weight="bold"><tspan y="0" x="124.685"> </tspan></text>
<text xml:space="preserve" transform="matrix(1 0 -0 1 72 264.294)" font-size="11" font-family="HelveticaNeue" font-weight="bold"><tspan y="0" x="127.743 134.871 141.394 148.11499 150.95299 157.47599 163.78998 170.10398">Engineer</tspan></text>
<text xml:space="preserve" transform="matrix(1 0 -0 1 72 264.294)" font-size="11" font-family="HelveticaNeue"><tspan y="0" x="174.383"> </tspan></text>
<text xml:space="preserve" transform="matrix(1 0 -0 1 72 264.294)" font-size="11" font-family="HelveticaNeue" font-weight="bold"><tspan y="0" x="177.441 183.96399 186.80199 193.32498 199.63898 206.35997 209.19797">Lincoln</tspan></text>
<text xml:space="preserve" transform="matrix(1 0 -0 1 72 264.294)" font-size="11" font-family="HelveticaNeue" font-weight="bold"><tspan y="0" x="215.721"> </tspan></text>
<text xml:space="preserve" transform="matrix(1 0 -0 1 72 264.294)" font-size="11" font-family="HelveticaNeue" font-weight="bold"><tspan y="0" x="218.779 222.024 227.524">IT,</tspan></text>
<text xml:space="preserve" transform="matrix(1 0 -0 1 72 264.294)" font-size="11" font-family="HelveticaNeue"><tspan y="0" x="230.582 233.64 241.582 244.024 249.931 255.64 261.14 266.64 269.082 271.524 273.96598 279.873 282.931 285.989 293.931 301.059 304.117 311.245 317.361 323.675 326.733 332.849 338.965 345.081 351.197 355.47599 358.534 368.115 374.022 377.685 380.743 386.859 392.975 399.091"> Hicksville, NY Aug 2020- Mar 2022</tspan></text>
<text xml:space="preserve" transform="matrix(1 0 -0 1 72 264.294)" font-size="11" font-family="HelveticaNeue"><tspan y="0" x="405.207">&#x000a;</tspan></text>
<text xml:space="preserve" transform="matrix(1 0 -0 1 72 276.349)" font-size="11" font-family="HelveticaNeue"><tspan y="0" x="0 2.849 8.965 12.023001 15.488001 21.604002 24.046002 29.546002 32.604 36.068998 42.382997 44.824998 50.732 53.789999 63.172998 68.673 71.730998 78.254 81.917 84.359 93.742008 99.649 103.312007 108.812007 111.87 115.126 121.242 127.357997 133.265 136.73 139.172 145.486 151.60199 154.65999 157.10199 162.60199 165.65999 175.04299 181.35698 187.47298 189.91498 193.37998 199.69397 203.35697 205.79897 211.91497 218.22896 221.28696 227.19396 233.30995 239.83295 242.89095 248.79795 254.29795 260.20497 266.11198 268.55397 274.46098 277.92597 280.36796 286.68196 292.79795 298.29795 301.35597 307.66996 310.92597 313.98399 320.29798 326.41398 330.07698 333.13499 339.042 341.48399 343.92597 349.83299 355.94898 359.41398 362.472 368.58799 374.495 377.96 386.298 392.612 396.275 401.984 407.484 410.54203 416.44905 422.56504 429.08805">In this role my primary function is monitoring and escalations of our client networks and </tspan></text>
<text xml:space="preserve" transform="matrix(1 0 -0 1 72 288.349)" font-size="11" font-family="HelveticaNeue"><tspan y="0" x="0 2.4420002 8.558001 11.814001 15.477001 21.384 26.884 30.349 34.012 40.128004 46.035005 49.500005 55.616006 59.081007 64.98801 68.046009 71.51101 77.82501 80.88301 86.79001 92.906009 98.406009 104.522 107.98701 113.894008 116.952 122.859 129.173 135.289 138.754 141.196 147.312 153.428 155.87 159.33499 164.021 167.079 170.137 172.986 179.10199 182.15999 188.06699 194.58998 201.11298 203.55498 207.01998 209.46198 215.77597 221.89197 224.94997 228.41497 234.72896 237.78696 247.16996 253.48395 259.59996 262.04194 265.50694 271.82093 275.48393 277.9259 284.0419 290.3559 293.4139 299.32093 301.7629 304.2049 307.2629 313.5769 316.83293 319.89094 326.20494 332.32093 335.98393 339.04194 344.94895 347.39094 349.83293 355.73994 361.85594 365.32093 368.37895 373.87895 376.32093 379.78593 385.69294 391.19294 394.25096 397.30897 400.15797 403.21598 409.33198 415.23899 421.35499 427.878 430.31999 436.227 442.75 445.808 451.71504 457.83103 463.33103">infrastructure to ensure continuity. In addition to monitoring all of our client sites, I handled any </tspan></text>
<text xml:space="preserve" transform="matrix(1 0 -0 1 72 300.349)" font-size="11" font-family="HelveticaNeue"><tspan y="0" x="0 5.907 11.407 17.314 23.220999 25.662999 31.569998 35.035 40.942 47.465005 50.523004 52.965005 58.465005 63.965005 70.081 75.988 81.488 84.546 90.86 94.523 97.581 101.046009 103.48801 109.395008 115.104007 121.011 124.476009 129.97602 133.03401 138.94101 145.255 154.638 157.08 163.196 169.51 172.568 175.82399 179.28899 185.60298 194.98598 198.04398 204.35797 210.47397 214.13697 217.19496 223.31096 229.21796 231.65996 238.18296 241.24095 247.76395 253.67095 259.17097 264.87998 267.938 270.996 278.531 284.43803 289.93803 296.252 302.368 308.89103 311.94905 315.41404 321.53004 327.43705 332.93705 338.84407 341.90208 348.42509 354.54109 358.00608 360.44807 366.35508 371.85508 374.9131 377.9711 380.8201 383.8781 392.21614 398.53013 402.1931 407.90214 410.96015 417.27415 423.39015 426.44816 432.35517 438.87818 441.9362 448.0522 454.36619 460.2732">escalated issues or tickets coming from our help desk. Beyond these duties, I work on ad hoc </tspan></text>
<text xml:space="preserve" transform="matrix(1 0 -0 1 72 312.349)" font-size="11" font-family="HelveticaNeue"><tspan y="0" x="0 6.5230009 9.988001 16.302002 18.744002 24.651001 30.558 34.023004 39.523004 42.581 50.919004 53.361005 56.826005 62.942007 66.00001 72.31401 78.43001 82.09301 85.15101 90.65101 96.55801 100.22101 102.66301 108.97701 115.09301 120.59301 123.65101 127.11601 133.02301 138.93001 148.313 153.813 156.871 159.929 163.185 166.65 172.96399 182.34699 185.40499 191.52098 197.42798 200.89298 209.23097 215.54497 219.20796 224.91696 227.35897 233.47496 239.78896 242.84696 249.36995 252.83495 259.14897 261.59095 267.49797 273.40498 276.86997 282.36997 285.42799 288.486 291.951 298.26499 301.323 306.823 312.73 316.393 321.893 327.80003 331.463 334.52104 343.90403 349.81105 352.25303 358.36903 361.834 367.74104 373.85704 379.76405 385.88005 391.78706 397.69407 400.75209 406.6591 412.7751 419.2981 422.3561 428.87913 434.99513 437.4371 439.8791 446.4021 451.9021">projects with our various teams, from networking projects, to server maintenance and builds.</tspan></text>
<text xml:space="preserve" transform="matrix(1 0 -0 1 72 312.349)" font-size="11" font-family="HelveticaNeue"><tspan y="0" x="454.9601">&#x000a;</tspan></text>
<text xml:space="preserve" transform="matrix(1 0 -0 1 72 337.294)" font-size="11" font-family="HelveticaNeue" font-weight="bold"><tspan y="0" x="0 7.535001 13.849001 20.163002 26.884003 33.407007 39.930009">Account</tspan></text>
<text xml:space="preserve" transform="matrix(1 0 -0 1 72 337.294)" font-size="11" font-family="HelveticaNeue" font-weight="bold"><tspan y="0" x="43.802"> </tspan></text>
<text xml:space="preserve" transform="matrix(1 0 -0 1 72 337.294)" font-size="11" font-family="HelveticaNeue" font-weight="bold"><tspan y="0" x="46.86 56.837 63.151 69.674 75.98801 82.70901 89.02301 92.29001">Manager,</tspan></text>
<text xml:space="preserve" transform="matrix(1 0 -0 1 72 337.294)" font-size="11" font-family="HelveticaNeue" font-weight="bold"><tspan y="0" x="95.348"> </tspan></text>
<text xml:space="preserve" transform="matrix(1 0 -0 1 72 337.294)" font-size="11" font-family="HelveticaNeue" font-weight="bold"><tspan y="0" x="98.406 105.743 109.824 116.545 122.451999 129.17299 135.69599 139.777 146.09099 152.40499 155.46298 158.30098">Prosource.it</tspan></text>
<text xml:space="preserve" transform="matrix(1 0 -0 1 72 337.294)" font-size="11" font-family="HelveticaNeue"><tspan y="0" x="162.173 165.231 173.173 179.08 187.418 190.476 196.38301 202.697 206.36 212.069 215.127 218.185 226.127 233.255 240.38301 246.29001 252.813 255.871 261.987 268.103 274.219 280.335 283.393 287.672 290.73 300.311 306.21803 309.881 312.93904 319.05503 325.17103 331.28703"> New York, NYSep 2019 - Mar 2020</tspan></text>
<text xml:space="preserve" transform="matrix(1 0 -0 1 72 337.294)" font-size="11" font-family="HelveticaNeue"><tspan y="0" x="337.403">&#x000a;</tspan></text>
<text xml:space="preserve" transform="matrix(1 0 -0 1 72 349.349)" font-size="11" font-family="HelveticaNeue"><tspan y="0" x="0 7.942001 13.849001 17.314002 23.221 26.279002 29.128003 32.186 40.524003 46.838 50.501 56.21 59.267999 67.605998 70.048 73.513 79.629 82.687 88.395999 94.30299 99.80299 102.86099 108.36099 111.826 117.732997 123.44199 129.349 135.465 141.77899 144.221 150.74399 156.65099 160.31398 165.81398 168.87198 172.33698 178.65097 181.70897 184.96497 190.87197 196.77896 199.22097 201.66297 204.10497 207.56996 213.47696 216.94196 222.84896 225.90695 231.81395 237.92995 244.45294 247.51094 253.41794 259.73194 266.04594 269.51094 276.03395 278.47593 284.59193 290.49894 293.96394 299.87095 302.92897 308.42897 314.33598 317.99897 320.44096 326.75495 332.87095 338.37095 341.42897 347.33598 352.83598 359.35899 365.266 371.173 374.638 380.138 383.196 389.51 392.76603 395.82405 402.13804 408.25404 411.91703 414.97505 424.35804 430.26506 432.70704 438.82304">Here I work with key stakeholders to facilitate and coordinate various aspects of our main </tspan></text>
<text xml:space="preserve" transform="matrix(1 0 -0 1 72 361.349)" font-size="11" font-family="HelveticaNeue"><tspan y="0" x="0 5.907 11.814 17.721 24.035 30.151001 36.267004 39.732004 42.79 45.232004 51.348005 54.406003 57.871004 63.987005 69.894008 72.952 80.894008 88.022 91.08 94.545009 100.452 106.76601 109.20801 115.52201 121.63801 124.69601 127.754009 137.94 145.06801 150.22702 153.28502 156.34302 162.65702 168.77301 171.21501 176.71501 179.77301 185.68001 191.796 195.261 201.168 203.61 206.052 211.959 218.482 221.54 229.87799 236.19199 239.85498 245.56398 248.00598 254.12198 260.43598 263.494 271.832 274.274 277.73899 283.85499 286.913 297.099 304.227 311.35499 314.413 316.85499 322.97099 326.43598 332.343 336.20399 342.31999 348.227 350.66899 353.727 356.576 361.66899 364.727 367.785 374.099 376.541 382.65699 388.564 394.68 400.587 406.49403 409.55204 412.61006 418.51707 424.63307 431.15608 434.21409 442.15608 449.69108">account in the NY region, WPP. This entailed working with WPP internal IT, Finance, and HR </tspan></text>
<text xml:space="preserve" transform="matrix(1 0 -0 1 72 373.349)" font-size="11" font-family="HelveticaNeue"><tspan y="0" x="0 3.4650005 9.372001 15.279001 24.662003 30.162003 33.22 39.127004 44.627004 47.685 56.023004 61.930006 64.372 66.814 69.872 75.779 81.279 84.337 92.279 95.337 97.779 103.686 109.186 115.092998 117.534999 120.592998 126.49999 132.198 138.105 144.012 150.12799 153.59299 156.03499 161.53499 167.44199 172.94199 175.99999 179.25598 182.72098 189.03498 198.41797 201.47597 204.94097 211.05696 216.96396 219.40596 223.06896 226.12696 231.62696 237.74295 244.26595 249.76595 252.20795 258.73097 261.17295 267.07997 270.74296 273.18495 279.09196 284.59196 287.64997 291.11497 297.42897 300.48698 307.00999 310.67298 313.11497 318.61497 324.52198 327.58 334.103 336.54499 342.85899 345.30097 348.76597 354.67298 357.11497 360.17298 363.63798 367.30097 373.20799 379.32398 384.82398 388.08 394.39399 398.05699 407.43998 413.347 416.81199 419.25398 425.56797 431.68397">teams as well as C level executives from their subsidiaries to drive digital transformation </tspan></text>
<text xml:space="preserve" transform="matrix(1 0 -0 1 72 385.349)" font-size="11" font-family="HelveticaNeue"><tspan y="0" x="0 6.5230009 9.988001 16.302002 18.744002 24.651001 30.558 34.023004 39.523004 42.581 45.023004 51.139005 54.197004 62.139005 68.453 72.116008 75.58101 81.69701 84.755008 91.883 101.26601 107.173007 110.836009 113.27801 119.185009 125.092 128.15001 131.20801 137.522 143.638 147.301 150.76599 156.88199 162.78899 165.43999 168.49799 171.55599 174.40499 177.46298 183.36998 188.86998 194.36998 196.81198 202.31198 205.77698 208.83498 212.29998 218.41597 224.32297 227.38097 233.90396 237.36896 243.68296 249.99695 253.65995 259.56697 268.94996 272.00798 277.91499 284.03099 290.554 293.612 300.135 303.6 309.914 312.356 318.263 324.17 327.635 330.69303 340.07603 345.98304 352.09904 358.00605 364.32005 370.22706 379.61006 385.51707 391.63307 395.09806 398.15608 401.62107 407.52809 413.4351 422.81809 428.31809 431.3761 439.7141 442.1561 445.6211 451.7371">projects in North America. Further, I assist the program and project management teams with </tspan></text>
<text xml:space="preserve" transform="matrix(1 0 -0 1 72 397.349)" font-size="11" font-family="HelveticaNeue"><tspan y="0" x="0 5.907 12.43 21.813 24.255 30.371 32.813 38.313 41.778 45.441 51.348005 54.813005 57.255006 62.755006 68.662 71.72 78.243007 84.359 87.824008 90.26601 96.173007 101.673007 104.731 107.789 115.324008 121.231 126.731 133.045 139.161 145.68399 148.74199 152.20699 158.32299 160.76499 166.26499 169.32299 172.38098 175.22998 178.28798 184.81098 188.27597 194.58997 200.08997 202.53197 209.05496 214.96196 218.01996 224.54296 230.65895 236.15895 238.60095 244.71695 250.62395 256.12397 261.62397 264.68199 271.205 277.112 282.612 288.519 290.961 297.275 303.798 313.181 319.088 325.204 328.669 331.72703 337.63404 343.75004 350.27305 353.33106 359.64506 365.76106 369.22605 372.69105 378.59806 384.50508 390.41209 396.52809 399.5861 402.02809 408.14408 411.2021 414.66709 420.78309 426.6901 429.7481 436.0621 439.5271 445.4341 451.34114 454.80613 460.71315 464.37614">administrative duties. Beyond this, I provide business development and outreach in the greater </tspan></text>
<text xml:space="preserve" transform="matrix(1 0 -0 1 72 409.349)" font-size="11" font-family="HelveticaNeue"><tspan y="0" x="0 7.942001 15.070002 18.128003 24.035002 27.500002 33.407 39.314004">NY area.</tspan></text>
<text xml:space="preserve" transform="matrix(1 0 -0 1 72 409.349)" font-size="11" font-family="HelveticaNeue"><tspan y="0" x="42.372">&#x000a;</tspan></text>
<text xml:space="preserve" transform="matrix(1 0 -0 1 72 434.294)" font-size="11" font-family="HelveticaNeue" font-weight="bold"><tspan y="0" x="0 5.5 11.814 18.128 24.651001 31.174002 34.012 40.326 46.64">Technical</tspan></text>
<text xml:space="preserve" transform="matrix(1 0 -0 1 72 434.294)" font-size="11" font-family="HelveticaNeue" font-weight="bold"><tspan y="0" x="49.478"> </tspan></text>
<text xml:space="preserve" transform="matrix(1 0 -0 1 72 434.294)" font-size="11" font-family="HelveticaNeue" font-weight="bold"><tspan y="0" x="52.536 59.675 66.198 72.919 79.64 86.361 90.64">Support</tspan></text>
<text xml:space="preserve" transform="matrix(1 0 -0 1 72 434.294)" font-size="11" font-family="HelveticaNeue" font-weight="bold"><tspan y="0" x="94.512"> </tspan></text>
<text xml:space="preserve" transform="matrix(1 0 -0 1 72 434.294)" font-size="11" font-family="HelveticaNeue" font-weight="bold"><tspan y="0" x="97.57">,</tspan></text>
<text xml:space="preserve" transform="matrix(1 0 -0 1 72 434.294)" font-size="11" font-family="HelveticaNeue" font-weight="bold"><tspan y="0" x="100.628"> </tspan></text>
<text xml:space="preserve" transform="matrix(1 0 -0 1 72 434.294)" font-size="11" font-family="HelveticaNeue" font-weight="bold"><tspan y="0" x="103.686 110.010997 116.325 119.162998 122.00099 128.31499 134.83798">Valiant</tspan></text>
<text xml:space="preserve" transform="matrix(1 0 -0 1 72 434.294)" font-size="11" font-family="HelveticaNeue" font-weight="bold"><tspan y="0" x="138.71"> </tspan></text>
<text xml:space="preserve" transform="matrix(1 0 -0 1 72 434.294)" font-size="11" font-family="HelveticaNeue" font-weight="bold"><tspan y="0" x="141.768 147.268 153.582 159.896 166.41899 172.94199 179.66298 182.50098 189.22197 195.94297">Technology</tspan></text>
<text xml:space="preserve" transform="matrix(1 0 -0 1 72 434.294)" font-size="11" font-family="HelveticaNeue"><tspan y="0" x="201.652 204.70999 212.652 218.55899 226.89699 229.95499 235.862 242.176 245.83899 251.54799 254.60599 257.664 265.606 271.91999 279.04798 285.16398 291.47798 294.53599 300.65199 306.76799 312.88398 318.99998 323.27897 330.40696 336.31398 342.83699 345.895 352.011 358.12699 364.24299"> New York, NYAug 2017-Sep 2019</tspan></text>
<text xml:space="preserve" transform="matrix(1 0 -0 1 72 434.294)" font-size="11" font-family="HelveticaNeue"><tspan y="0" x="370.35899">&#x000a;</tspan></text>
<text xml:space="preserve" transform="matrix(1 0 -0 1 72 446.349)" font-size="11" font-family="HelveticaNeue"><tspan y="0" x="0 6.721 16.104 22.627 28.534 35.057 41.58 47.487005 54.010004 57.068 62.975004 66.44 69.498 75.405 81.520999 84.578998 90.48599 96.60199 100.06699 105.97399 109.63699 113.102 119.008998 121.451 127.56699 136.95 142.857 148.97299 152.43799 155.49599 157.93799 163.84499 172.18299">Embedded at an entertainment law </tspan></text>
<text xml:space="preserve" transform="matrix(1 0 -0 1 72 446.349)" font-size="11" font-family="HelveticaNeue"><tspan y="0" x="175.241">&#xfb01;</tspan></text>
<text xml:space="preserve" transform="matrix(1 0 -0 1 72 446.349)" font-size="11" font-family="HelveticaNeue"><tspan y="0" x="180.939 184.60199 193.98499 197.04299 200.29898 206.61298 210.27597 213.33397 219.24097 222.29897 224.74097 230.64797 234.00296 240.31696 246.22396 249.28195 255.80495 261.71195 265.37495 268.83995 271.89796 278.21195 281.46797 284.52598 293.90898 299.40898 302.46699 305.93199 311.839 317.955 324.07099 327.53599 333.443 336.501 339.55903 342.40803 345.46604 353.80406 359.71107 365.21107 368.26908 371.73408 377.85008 383.75709">rm for a large part of my tenure, I was the </tspan></text>
<text xml:space="preserve" transform="matrix(1 0 -0 1 72 446.349)" font-size="11" font-family="HelveticaNeue"><tspan y="0" x="386.815">&#xfb01;</tspan></text>
<text xml:space="preserve" transform="matrix(1 0 -0 1 72 446.349)" font-size="11" font-family="HelveticaNeue"><tspan y="0" x="392.513 396.176 401.676 405.141 408.199 414.72203 421.036 423.478 429.594 433.059 436.117 442.431 445.687">rst point of </tspan></text>
<text xml:space="preserve" transform="matrix(1 0 -0 1 72 458.349)" font-size="11" font-family="HelveticaNeue"><tspan y="0" x="0 5.907 12.221001 18.337002 21.802002 27.709002 33.616 37.081 40.139 46.046 52.162004 58.685007 61.743005 67.859 73.766 79.881999 86.405 88.847 94.754 101.277 104.335 110.242 112.684 115.126 118.184 120.626 126.126 131.626 137.742 143.649 149.149 152.207 155.463 161.777 165.43999 168.49799 171.96298 178.07898 183.98598">contact and handled all issues for the </tspan></text>
<text xml:space="preserve" transform="matrix(1 0 -0 1 72 458.349)" font-size="11" font-family="HelveticaNeue"><tspan y="0" x="187.044">&#xfb01;</tspan></text>
<text xml:space="preserve" transform="matrix(1 0 -0 1 72 458.349)" font-size="11" font-family="HelveticaNeue"><tspan y="0" x="192.742 196.405 205.788 208.846 211.90399 215.15999 218.62499 224.93898 234.32198 237.37998 240.84497 244.30997 250.62397 256.73997 263.26298 265.70497 271.61198 277.11198 283.22798 289.54197 295.85597 299.32096 301.76295 307.87895 314.19294 317.25096 320.71595 326.83195 332.73896 335.79698 341.91297 347.81999 351.28498 359.623 365.93699 369.59999 375.309 378.367 384.27403 390.39 396.91304 399.97105 405.47105 411.37806 415.04106 420.54106 426.44807 430.11106 435.61106 438.66908 441.72709 445.19209 451.50608">rm, from troubleshooting the network and servers, to </tspan></text>
<text xml:space="preserve" transform="matrix(1 0 -0 1 72 470.349)" font-size="11" font-family="HelveticaNeue"><tspan y="0" x="0 6.5230009 9.988001 16.302002 21.802002 24.244002 30.767003 33.209005 39.325006 45.639005 48.697004 55.22 61.127004 66.627 69.685 73.15 79.464008 82.522 89.045009 94.952 100.452 103.51 109.01 115.126 121.649 128.172 134.486 138.14899 141.61399 144.67198 147.92798 154.24198 157.90497 160.96297 164.42797 170.54396 176.45096 179.50896 186.63697 190.10196 193.56696 199.88095 203.74195 209.85794 215.76494 221.26494 226.76494 229.82294 235.72994 241.84593 248.36893 251.42693 258.55494 262.01994">providing day to day support for the Attorneys and Sta</tspan></text>
<text xml:space="preserve" transform="matrix(1 0 -0 1 72 470.349)" font-size="11" font-family="HelveticaNeue"><tspan y="0" x="267.927">&#xfb00;</tspan></text>
<text xml:space="preserve" transform="matrix(1 0 -0 1 72 470.349)" font-size="11" font-family="HelveticaNeue"><tspan y="0" x="274.274 277.332 280.39 285.483 291.39 297.29704 303.41304 309.52903 315.84303 318.285 324.599 330.913 333.35499 339.262 344.762 347.82 353.72703 363.11003 369.63304 372.075 378.389 383.889 389.79603 396.31904 399.37705 405.28407 408.74906 411.80708 415.27207 421.38807 427.29508">. Technologies employed at the </tspan></text>
<text xml:space="preserve" transform="matrix(1 0 -0 1 72 470.349)" font-size="11" font-family="HelveticaNeue"><tspan y="0" x="430.353">&#xfb01;</tspan></text>
<text xml:space="preserve" transform="matrix(1 0 -0 1 72 470.349)" font-size="11" font-family="HelveticaNeue"><tspan y="0" x="436.051 439.714 449.097">rm </tspan></text>
<text xml:space="preserve" transform="matrix(1 0 -0 1 72 482.349)" font-size="11" font-family="HelveticaNeue"><tspan y="0" x="0 2.4420002 8.558001 14.465 16.907 23.023 29.546002 35.453004 38.511">include O</tspan></text>
<text xml:space="preserve" transform="matrix(1 0 -0 1 72 482.349)" font-size="11" font-family="HelveticaNeue"><tspan y="0" x="46.871">&#xfb03;</tspan></text>
<text xml:space="preserve" transform="matrix(1 0 -0 1 72 482.349)" font-size="11" font-family="HelveticaNeue"><tspan y="0" x="55.66 61.567 67.474 70.532 76.647998 82.76399 88.87999 91.93799 94.99599 104.57699 107.01899 112.92599 116.39099 122.704998 128.20499 134.51898 137.77498 141.23998 144.29798 151.42598 157.33298 160.99597 166.49597 172.40297 175.05397 178.11197 181.16997 188.70497 194.61197 203.99497 210.30896 213.77396 219.68096 222.73896 230.48296 236.38996 241.88996 247.59896 251.06395 257.37797 263.90098 266.95899 270.017 277.95899 283.45899 289.982 295.889 298.947 303.22599 308.52799 311.586 314.644 324.225 330.13203 333.795 339.70204 345.41105 347.85304 350.91105 353.96907 361.91105 364.35304 369.85304 375.76005 382.07405 385.13206 388.19007 394.09709 400.21308 406.73609 409.7941 416.7241 422.2241 428.1311 433.6311 439.53813">ce 365, Microsoft Server, Remote Desktop, Hyper-V, Meraki, Cisco, and Avaya </tspan></text>
<text xml:space="preserve" transform="matrix(1 0 -0 1 72 494.349)" font-size="11" font-family="HelveticaNeue"><tspan y="0" x="0 6.5230009 12.639002 18.953003 25.069005 30.976004 36.476007 39.534006 42.592004 50.336004 56.243005 58.685007 61.127008 66.62701 69.685009 73.15001 79.05701 84.55701 90.26601 95.76601 98.824008 104.731 110.847 116.754 123.068 132.451 138.974 144.881 150.381 155.881 158.939 165.46199 171.57799 177.89199 184.00798 189.91498 192.97298 198.87998 205.19397">phones. Daily tasks encompass phone con</tspan></text>
<text xml:space="preserve" transform="matrix(1 0 -0 1 72 494.349)" font-size="11" font-family="HelveticaNeue"><tspan y="0" x="211.31">&#xfb01;</tspan></text>
<text xml:space="preserve" transform="matrix(1 0 -0 1 72 494.349)" font-size="11" font-family="HelveticaNeue"><tspan y="0" x="217.008 223.32199 229.43799 233.10099 239.00798 242.47298 244.91498 251.22898 257.34498 260.40299 263.461 269.775 275.891 282.414 288.728 294.635 298.1 304.62303 307.065 313.181 319.495 322.553 328.46003 334.57603 341.09904 344.15705">guration, onboarding and o</tspan></text>
<text xml:space="preserve" transform="matrix(1 0 -0 1 72 494.349)" font-size="11" font-family="HelveticaNeue"><tspan y="0" x="350.471">&#xfb00;</tspan></text>
<text xml:space="preserve" transform="matrix(1 0 -0 1 72 494.349)" font-size="11" font-family="HelveticaNeue"><tspan y="0" x="356.818 363.341 369.655 375.562 379.027 385.55003 387.992 394.108 400.422 403.48 409.38703 418.77003 425.29304 427.73503 434.049 439.549 445.45603 451.36305 456.86305 459.92106">boarding employees, </tspan></text>
<text xml:space="preserve" transform="matrix(1 0 -0 1 72 506.349)" font-size="11" font-family="HelveticaNeue"><tspan y="0" x="0 6.1160008 12.023001 14.465001 20.988003 24.046004 30.569005 36.476007 41.976007 47.685007 50.743005 53.801004 59.708005 65.824008 72.34701 75.40501 81.92801 85.39301 91.707019 94.14902 100.056018 105.96301 109.42802 112.486019 118.39301 124.707019 131.02101 134.48601 141.009 143.451 149.567 155.474 158.939 161.381 167.69499 173.81099 176.86899 179.92699 187.46199 193.36899 198.86899 205.18299 211.29898 217.82198 220.87998 224.34497 230.46097 232.90297 238.40297 241.46097 244.30997 247.36797 255.70597 261.61299 267.11299 270.171 273.636 279.543 285.043 290.752 296.65904 303.18205 306.24006 314.57807 317.02006 320.48506 326.60105 329.65907 335.15907 341.06608 344.72908 347.17106 353.48506 359.60105 365.10105 368.15907 374.68208 380.58909 384.05409 389.9611 396.4841 402.3911 407.8911 413.79814">help desk, and project coordination. Beyond this I was tasked with various database </tspan></text>
<text xml:space="preserve" transform="matrix(1 0 -0 1 72 518.349)" font-size="11" font-family="HelveticaNeue"><tspan y="0" x="0 9.383 15.290001 17.732 23.848002 27.313002 33.22 39.336004 45.243005 51.359006 57.266008 63.173009 66.23101 72.13801 78.254009 84.77701 87.83501 94.35801 100.26501 106.172008 111.881008 117.997 124.520008 127.578 130.636 136.95 140.415 146.72899 152.84499 159.36798 162.42598 168.94898 175.26297 177.70497 180.14698 186.05397 191.55397 194.61197 201.13497 207.04196 213.56496 216.00696 222.32096 227.82096 237.20395 243.11095 249.22695 252.69194 258.19197 261.24998 264.30799 270.215 276.331 282.854 285.91203 295.295 301.609 307.725 310.167 313.632 319.94599 323.60899 326.05097 332.16697 338.48097 341.53898 347.85298 351.10899 354.167 360.074 363.737 366.179 369.64399 372.08598 377.99299 383.9 386.34199 389.4 394.9 400.4 405.9 409.365 415.272 424.655 430.155 433.213 439.73603 446.05003 449.515 455.631">maintenance and backup, group policy deployments, and monitoring of critical systems both </tspan></text>
<text xml:space="preserve" transform="matrix(1 0 -0 1 72 530.349)" font-size="11" font-family="HelveticaNeue"><tspan y="0" x="0 5.5 11.407 15.07 20.57 26.477 30.14 33.197999 39.105 45.221 51.744005 54.802003 60.918004 66.825008 70.29001 78.628009 84.94201 88.60501 94.31401 97.37201 100.43001 108.79001 114.906009 118.37101 123.87101 126.31301 132.83602 138.74301 141.80101 148.115 151.371 154.429 157.894 164.01 169.91699 172.97499 179.28899 181.73099 185.39398 194.77698 197.83498 200.89298 203.74198 206.79998 215.13797 221.45197 225.11496 230.82396 236.73096 243.25395 246.31195 254.64995 257.09196 260.55696 266.67295 269.73097 275.63798 278.69599 287.034 289.47599 295.999 301.906 304.96403 310.87104 314.53404 318.19703 324.10404 329.60404 332.66206 338.97605 342.23207 345.29008 351.19709 353.63908 356.08106 361.98808 368.10408 371.56907 377.06907 380.12709 383.1851 385.62709 391.74308 395.20808 401.11509 404.77809 408.0341 413.9411 419.8481 422.2901 428.4061 434.7201 437.7781 446.11613 448.5581 452.0231 458.1391">server and network. Outside of the Firm, I worked with a wide array of clients, interfacing with </tspan></text>
<text xml:space="preserve" transform="matrix(1 0 -0 1 72 542.349)" font-size="11" font-family="HelveticaNeue"><tspan y="0" x="0 3.4650005 9.372001 15.279001 21.395003 27.511004 33.825006 36.267007 42.581007 48.895006 51.337007 57.244009 62.744009 65.80201 68.24401 74.36001 80.267009 82.70901 88.825008 95.34801 97.79001 103.906009 110.22001 113.27801 116.336009 122.85901 128.975 132.44 135.498 141.614 147.928 151.39299 154.45099 156.89299 159.33499 168.71799 171.15999 174.62499 180.53199 187.05498 190.11298 193.57798 199.89197 202.94997 206.00797 214.35697 218.63597 225.76398 231.87998 234.32198 237.78697 243.69397 246.75197 249.80997 256.93797 263.25196 269.36796 271.80995 277.71696 280.77497 290.55397 296.46098 298.90296 301.34495 304.40296 307.46098 314.58897 320.08897 326.20497 332.51896 334.96095 341.27494 347.58894 352.27494 355.33296 358.39097 366.33296 368.77494 372.23994 375.90293 378.3449 384.0429 387.10093 390.15895 396.87995 406.46095 416.23994 422.14695 425.61195 431.51896 434.57698 440.48399 446.59999">technologies including, but not limited to, G-Suite, Sonic Wall, Synology, Citrix, VMWare and</tspan></text>
<text xml:space="preserve" transform="matrix(1 0 -0 1 72 542.349)" font-size="11" font-family="HelveticaNeue"><tspan y="0" x="453.123">&#x000a;</tspan></text>
<text xml:space="preserve" transform="matrix(1 0 -0 1 72 554.349)" font-size="11" font-family="HelveticaNeue"><tspan y="0" x="0 9.383 15.6970009 19.162 25.069 28.127 31.185002 34.034 37.092 42.999 45.441 50.941 57.255 60.313 66.836 72.743 76.406 79.871 82.313 88.22 90.662 97.185009 103.092 106.55701 112.464008 118.98701 122.045009 124.48701 130.60301 133.66101 143.044 148.951 155.067 160.567 163.625 170.148 173.61299 179.92699 182.36899 188.27599 194.18299 197.64798 203.14798 206.20598 209.26398 215.17098 220.67098 226.17098 228.61298 234.11298 237.57798 240.01998 246.13597 252.44997 255.50797 257.94996 264.06596 267.12397 270.58897 276.70497 282.61198 285.66999 288.11198 294.22798 299.72798 303.19297 309.09999 311.54197">more. I also participated in many projects, assisting in the install</tspan></text>
<text xml:space="preserve" transform="matrix(1 0 -0 1 72 554.349)" font-size="11" font-family="HelveticaNeue"><tspan y="0" x="313.98396">&#x000a;</tspan></text>
<text xml:space="preserve" transform="matrix(1 0 -0 1 72 579.294)" font-size="11" font-family="HelveticaNeue" font-weight="bold"><tspan y="0" x="0 5.5 11.814 18.128 24.651001 31.174002 34.012 40.326 46.64">Technical</tspan></text>
<text xml:space="preserve" transform="matrix(1 0 -0 1 72 579.294)" font-size="11" font-family="HelveticaNeue" font-weight="bold"><tspan y="0" x="49.478"> </tspan></text>
<text xml:space="preserve" transform="matrix(1 0 -0 1 72 579.294)" font-size="11" font-family="HelveticaNeue" font-weight="bold"><tspan y="0" x="52.536 59.675 66.198 72.919 79.64 86.361 90.64">Support</tspan></text>
<text xml:space="preserve" transform="matrix(1 0 -0 1 72 579.294)" font-size="11" font-family="HelveticaNeue"><tspan y="0" x="94.512"> </tspan></text>
<text xml:space="preserve" transform="matrix(1 0 -0 1 72 579.294)" font-size="11" font-family="HelveticaNeue" font-weight="bold"><tspan y="0" x="97.57 105.919 112.64 119.361">Gobi</tspan></text>
<text xml:space="preserve" transform="matrix(1 0 -0 1 72 579.294)" font-size="11" font-family="HelveticaNeue" font-weight="bold"><tspan y="0" x="122.199"> </tspan></text>
<text xml:space="preserve" transform="matrix(1 0 -0 1 72 579.294)" font-size="11" font-family="HelveticaNeue" font-weight="bold"><tspan y="0" x="125.257 128.502">IT</tspan></text>
<text xml:space="preserve" transform="matrix(1 0 -0 1 72 579.294)" font-size="11" font-family="HelveticaNeue"><tspan y="0" x="135.223 138.281 146.223 152.13 160.468 163.526 169.43302 175.74701 179.41 185.119 188.177 191.235 199.177 206.30501 212.014 217.921 224.037 227.095 233.211 239.327 245.443 251.55899 255.838 261.547 267.663 270.10499 275.60499 278.663 284.779 290.895 297.011"> New York, NYJan 2017-July 2017</tspan></text>
<text xml:space="preserve" transform="matrix(1 0 -0 1 72 579.294)" font-size="11" font-family="HelveticaNeue"><tspan y="0" x="303.12699">&#x000a;</tspan></text>
<text xml:space="preserve" transform="matrix(1 0 -0 1 72 591.349)" font-size="11" font-family="HelveticaNeue"><tspan y="0" x="0 6.314 12.43 14.872001 20.372002 23.430003 26.895003 33.209005 35.651006 41.558008 44.616006 50.523008 56.639009 62.54601 68.86001 78.24301 84.766017 90.67301 96.17301 101.67301 107.58001 114.10301 117.16101 120.626018 126.53301 135.91602 142.23001 145.695 151.602 154.66 158.125 161.59 167.90399 174.01999 180.54299 182.98499 188.89199 194.39199 200.50798 206.82198 213.13597 216.60097 219.04297 225.15897 231.47296 234.53096 237.58896 244.11196 250.01895 253.68195 256.93797 263.25196 266.91496 276.29795 278.73994 284.85594 291.16993 294.22795 300.54194 306.65794 312.15794 314.5999 318.0649 323.97193 327.02995 332.93696 338.84397 341.28596 343.72795 349.22795 352.28596 355.34397 361.25099 367.36698 373.88999 376.948 383.471 389.37803 391.82 397.72703 404.04103 409.94804 413.41304 415.855 421.971 428.285 431.34303 437.25004 443.36604 449.88905">This role encompassed remote troubleshooting, performing onsite calls, and delegating and </tspan></text>
<text xml:space="preserve" transform="matrix(1 0 -0 1 72 603.349)" font-size="11" font-family="HelveticaNeue"><tspan y="0" x="0 8.338 14.652 18.315 24.024003 26.466002 32.582 38.896 41.954 48.267999 54.384 57.441999 60.906999 63.349 69.256 74.965 80.871997 84.337 89.837 92.895 98.801998 108.185 114.091999 116.534 118.976 124.882999 131.40599 134.46399 137.92899 144.04499 147.50998 153.82398 159.93997 166.25397 172.36997 175.42797 183.36997 189.68396 195.79996 201.91596 207.82295 213.72995 217.19495 225.53295 227.97495 233.47495 239.38195 242.43994 245.49794 250.59095 256.49797 261.99797 267.70698 273.20698 276.26499 278.70698 284.82298 290.72999 293.17198 299.28797 305.81098 311.718 318.241 321.299 327.20603 332.70603 338.61305 342.27604 347.77604 351.24104 357.35704 359.799 365.915 372.229 375.28703 378.54304 382.00804 388.32203 397.70503">working on tickets emailed through Connectwise. Tasks included everything from </tspan></text>
<text xml:space="preserve" transform="matrix(1 0 -0 1 72 615.349)" font-size="11" font-family="HelveticaNeue"><tspan y="0" x="0 3.4650005 6.9300005 13.244 19.36 25.883002 28.325 34.232004 39.732004 45.848005 52.162004 58.476 61.941 64.383 70.499 76.813 79.871 88.231 94.347 96.789 102.696 108.405 114.928 121.242008 127.55601 133.26502 138.76502 141.82302 147.73001 153.84601 160.369 163.427 173.008 175.45 181.357 184.82199 191.13599 196.63599 202.94998 206.20598 209.67098 212.72898">troubleshooting Quickbooks and Microsoft O</tspan></text>
<text xml:space="preserve" transform="matrix(1 0 -0 1 72 615.349)" font-size="11" font-family="HelveticaNeue"><tspan y="0" x="221.089">&#xfb03;</tspan></text>
<text xml:space="preserve" transform="matrix(1 0 -0 1 72 615.349)" font-size="11" font-family="HelveticaNeue"><tspan y="0" x="229.878 235.785 241.692 244.75 247.808 251.273 257.587 260.64503 266.14503 272.05204 275.51704 281.63304 288.15605 291.21406 297.12107 303.23707 309.76008 312.81809 319.3411 325.2481 331.77113 334.2131 340.5271 346.0271 355.4101 361.3171 367.4331 370.8981 373.95613 380.2701 383.52613 386.58415 393.71214 400.84013 406.95613 412.45613 415.51414 421.42115 427.53715 434.06016">ce, to setup and deployment of AP?s and </tspan></text>
<text xml:space="preserve" transform="matrix(1 0 -0 1 72 627.349)" font-size="11" font-family="HelveticaNeue"><tspan y="0" x="0 6.721 16.302 26.081002 31.988 35.453 41.36 44.418 49.918 55.825 59.488 64.988 70.895 74.558 80.058 83.116 86.173999 95.733 102.047008 105.71001 111.41901 117.326007 123.84901 126.907009 135.24501 137.68701 141.15201 147.268 150.326 153.791 159.698 165.605 171.721 177.83699 184.15099 186.59299 192.90699 199.22098 201.66298 207.56998 213.06998 216.12798 218.56998 224.68598 230.59297 233.03498 239.15097 245.67397 248.11597 254.23197 260.54597 263.60398 271.54597 273.98796 279.48796 285.39497 291.70896 294.76698 300.26698 308.60499 311.04698 314.51197 320.41899 326.53498 332.442 337.942 341 344.058 353.837 359.74403 363.209 369.11604 375.23204 381.54603 387.66203 393.56904 397.03404 403.55705">VMWare servers. Worked with technologies including Cisco switches, Watchguard </tspan></text>
<text xml:space="preserve" transform="matrix(1 0 -0 1 72 627.349)" font-size="11" font-family="HelveticaNeue"><tspan y="0" x="406.615">&#xfb01;</tspan></text>
<text xml:space="preserve" transform="matrix(1 0 -0 1 72 627.349)" font-size="11" font-family="HelveticaNeue"><tspan y="0" x="412.313 415.77799 421.685 430.023 435.93003 438.372 440.814 446.314 449.372">rewalls, </tspan></text>
<text xml:space="preserve" transform="matrix(1 0 -0 1 72 639.349)" font-size="11" font-family="HelveticaNeue"><tspan y="0" x="0 6.1160008 11.814001 17.930003 20.988003 27.511004 33.627004 39.941 46.057004 51.964006 57.464006 60.522005 66.429 72.545 79.068 82.126 91.509 97.416 103.532 109.032 112.09 118.404 121.869 127.985 133.892 137.555 140.61299 146.11299 152.01999 158.13599 164.65898 170.97298 174.63597 177.69397 184.21697 187.68196 193.99596 200.51895 206.63495 212.54195 216.00695 221.50695">8x8 phones and many other vendor products.</tspan></text>
<text xml:space="preserve" transform="matrix(1 0 -0 1 72 639.349)" font-size="11" font-family="HelveticaNeue"><tspan y="0" x="224.56494">&#x000a;</tspan></text>
<text xml:space="preserve" transform="matrix(1 0 -0 1 72 664.294)" font-size="11" font-family="HelveticaNeue" font-weight="bold"><tspan y="0" x="0 7.1390006 13.453001 16.291 22.605">Sales</tspan></text>
<text xml:space="preserve" transform="matrix(1 0 -0 1 72 664.294)" font-size="11" font-family="HelveticaNeue" font-weight="bold"><tspan y="0" x="28.512"> </tspan></text>
<text xml:space="preserve" transform="matrix(1 0 -0 1 72 664.294)" font-size="11" font-family="HelveticaNeue" font-weight="bold"><tspan y="0" x="31.57 41.547 47.861 54.384004 60.698 67.419 73.733 77">Manager,</tspan></text>
<text xml:space="preserve" transform="matrix(1 0 -0 1 72 664.294)" font-size="11" font-family="HelveticaNeue" font-weight="bold"><tspan y="0" x="80.058"> </tspan></text>
<text xml:space="preserve" transform="matrix(1 0 -0 1 72 664.294)" font-size="11" font-family="HelveticaNeue" font-weight="bold"><tspan y="0" x="83.116 91.673999 98.395 104.301998 110.616 114.895 120.615 126.929">Observer</tspan></text>
<text xml:space="preserve" transform="matrix(1 0 -0 1 72 664.294)" font-size="11" font-family="HelveticaNeue" font-weight="bold"><tspan y="0" x="131.208"> </tspan></text>
<text xml:space="preserve" transform="matrix(1 0 -0 1 72 664.294)" font-size="11" font-family="HelveticaNeue" font-weight="bold"><tspan y="0" x="134.266 144.24301 150.557 157.278 160.116">Media</tspan></text>
<text xml:space="preserve" transform="matrix(1 0 -0 1 72 664.294)" font-size="11" font-family="HelveticaNeue" font-weight="bold"><tspan y="0" x="166.43"> </tspan></text>
<text xml:space="preserve" transform="matrix(1 0 -0 1 72 664.294)" font-size="11" font-family="HelveticaNeue" font-weight="bold"><tspan y="0" x="169.488 177.837 181.91802 188.639 195.162">Group</tspan></text>
<text xml:space="preserve" transform="matrix(1 0 -0 1 72 664.294)" font-size="11" font-family="HelveticaNeue" font-weight="bold"><tspan y="0" x="201.883"> </tspan></text>
<text xml:space="preserve" transform="matrix(1 0 -0 1 72 664.294)" font-size="11" font-family="HelveticaNeue" font-weight="bold"><tspan y="0" x="204.941 213.092 219.40599">New</tspan></text>
<text xml:space="preserve" transform="matrix(1 0 -0 1 72 664.294)" font-size="11" font-family="HelveticaNeue" font-weight="bold"><tspan y="0" x="228.36"> </tspan></text>
<text xml:space="preserve" transform="matrix(1 0 -0 1 72 664.294)" font-size="11" font-family="HelveticaNeue" font-weight="bold"><tspan y="0" x="231.418 237.53401 244.255 248.53401">York</tspan></text>
<text xml:space="preserve" transform="matrix(1 0 -0 1 72 664.294)" font-size="11" font-family="HelveticaNeue"><tspan y="0" x="254.848 257.906 265.848 271.75498 276.03398 282.14997 288.26597 294.38197 300.49797 304.77696 310.89295 317.00895 323.12495"> NY-2011-2016</tspan></text>
<text xml:space="preserve" transform="matrix(1 0 -0 1 72 664.294)" font-size="11" font-family="HelveticaNeue"><tspan y="0" x="329.24095">&#x000a;</tspan></text>
<text xml:space="preserve" transform="matrix(1 0 -0 1 72 676.349)" font-size="11" font-family="HelveticaNeue"><tspan y="0" x="0 2.849 8.965 12.023001 15.488001 21.604002 24.046002 29.546002 32.604 36.068998 42.382997 44.824998 50.732 53.789999 63.172998 68.673 71.730998 81.114 87.020999 89.463 95.578998 98.63699 101.89299 108.20699 114.11399 120.22999 125.72999 128.788 137.12599 143.03299 148.53299 151.59099 157.90499 164.02098 167.07898 176.46198 182.36898 188.48497 194.39197 200.70597 203.14797 209.26396 215.57796 218.63596 224.54296 230.44995 236.35695 242.67095 248.78694 254.90294 258.36796 263.86796 266.92597 272.83299 278.94898 285.472 288.53 295.053 300.96003 306.46003 312.36705 314.80903 321.12303 327.64604 330.088 336.204 342.518 345.57603 351.69203 357.59904 365.93705 368.99507 375.51808 381.63407 387.13407 389.57606 395.69206 401.59907 407.09907 412.59907">In this role my main focus was on managing accounts and developing new business </tspan></text>
<text xml:space="preserve" transform="matrix(1 0 -0 1 72 688.349)" font-size="11" font-family="HelveticaNeue"><tspan y="0" x="0 6.314 12.837001 19.36 25.674 29.337 32.802003 38.918004 45.034006 47.476007 50.941007 53.383008 59.29001 64.79001 67.84801 70.906009 77.22001 83.336009 85.77801 91.27801 94.336009 100.243007 106.359 109.824008 115.731 118.173007 120.615009 126.115009 129.173 135.08 141.394 147.51 153.01 156.47499 162.38199 168.49799 171.96298 175.02098 180.92798 183.36998 185.81198 191.71898 197.83498 201.29998 204.35797 206.79998 212.91597 216.38097 222.28797 225.95096 231.85796 237.76496 241.22995 243.67195 249.98595 256.10197 259.15998 265.067 271.18299 277.706 280.764 286.67103 292.57804 298.48506 304.79905 310.91505 317.03105 320.49604 323.55406 327.01905 330.68205 336.58906 342.49607 348.20509 350.64707 356.76307 363.07707 366.13508 371.63508 374.07707 379.98408 383.04209 390.17008 396.0771 398.51908 404.4261 409.9261 413.1821 419.4961 422.9611 428.8681 434.77513 437.83314">opportunities. This entails constant client interaction and account tracking via Salesforce. </tspan></text>
<text xml:space="preserve" transform="matrix(1 0 -0 1 72 700.349)" font-size="11" font-family="HelveticaNeue"><tspan y="0" x="0 8.360001 14.476002 20.383002 26.499003 29.964003 32.406003 35.871004 41.778005 45.243005 47.685007 53.185007 59.092008 62.150007 68.05701 74.173007 80.69601 83.754009 90.27701 96.393009 102.3 104.742008 107.184009 110.64901 116.55601 120.02101 122.46301 127.96301 133.87001 136.92801 140.393 146.3 151.8 157.707 163.614 167.079 172.986 179.10199 182.15999 190.49799 196.40499 199.86998 205.77698 208.83498 214.54398 220.45098 225.95098 229.00897 231.45098 237.56697 240.62497 244.08997 249.99697 255.90396 261.81098 267.92698 270.36897 276.48497 282.79896 285.85697 291.76399 297.87998 304.40299 307.461 313.368 319.066 324.97303 330.88005 336.78706 343.31007 345.75205 351.86805 358.18205 361.24006 364.70506 370.61207 376.11207 382.01908 388.13508 394.25108 400.15809 403.2161 409.5301 415.8441 421.7511 424.19309 429.69309 432.7511 435.8091 444.16914 447.63414 453.75013 459.65715 463.32014">Quantitative and qualitative research were key in reaching and exceeding revenue goals. Other </tspan></text>
</g>
</svg>
