<svg xmlns="http://www.w3.org/2000/svg" xmlns:xlink="http://www.w3.org/1999/xlink" version="1.1" width="612pt" height="792pt" viewBox="0 0 612 792">
<defs>
<clipPath id="clip_2">
<path transform="matrix(1,0,0,-1,0,792)" d="M0 0H612V792H0Z"/>
</clipPath>
<clipPath id="clip_3">
<path transform="matrix(1,0,0,-1,0,792)" d="M68.2 72H543.8V723.2037H68.2Z"/>
</clipPath>
</defs>
<g clip-path="url(#clip_2)">
<path transform="matrix(1,0,0,-1,0,792)" d="M0 792H612V0H0Z" fill="#ffffff"/>
</g>
<g clip-path="url(#clip_3)">
<text xml:space="preserve" transform="matrix(1 0 -0 1 72 81.349)" font-size="11" font-family="HelveticaNeue"><tspan y="0" x="0 6.5230009 12.639002 16.104002 18.546002 24.453001 29.953001 33.011 35.453004 41.569005 47.476007 49.918008 56.034009 62.557008 68.464008 74.98701 78.045009 86.383 92.69701 96.36001 102.06901 104.51101 110.62701 116.94101 119.99901 128.337 130.779 134.244 140.36 143.418 149.941">duties included working with di</tspan></text>
<text xml:space="preserve" transform="matrix(1 0 -0 1 72 81.349)" font-size="11" font-family="HelveticaNeue"><tspan y="0" x="152.383">&#xfb00;</tspan></text>
<text xml:space="preserve" transform="matrix(1 0 -0 1 72 81.349)" font-size="11" font-family="HelveticaNeue"><tspan y="0" x="158.73 164.637 168.10199 174.00899 180.12499 183.58998 186.64798 193.17098 199.07798 205.60097 211.50797 215.17096 218.63596 228.01895 233.92595 240.04195 243.50695 249.00695 252.06494 258.37895 264.49494 267.55296 273.45997 279.98298 283.041 286.50599 290.16899">erent departments on ad tra</tspan></text>
<text xml:space="preserve" transform="matrix(1 0 -0 1 72 81.349)" font-size="11" font-family="HelveticaNeue"><tspan y="0" x="296.076">&#xfb03;</tspan></text>
<text xml:space="preserve" transform="matrix(1 0 -0 1 72 81.349)" font-size="11" font-family="HelveticaNeue"><tspan y="0" x="304.865 310.772 316.48103 318.923 325.039 331.353 334.411 337.46903 340.31803 343.37605 349.28306 351.72505 357.22505 363.53904 366.59706 370.06205 373.72505 379.63206 385.53907 391.24809 397.1551 403.6781 406.7361 412.64314 422.02613 428.54914 430.99113 437.3051 442.8051 448.71214 454.61915">cking. I also tracked employee </tspan></text>
<text xml:space="preserve" transform="matrix(1 0 -0 1 72 93.349)" font-size="11" font-family="HelveticaNeue"><tspan y="0" x="0 6.1160008 12.43 18.546002 22.209002 27.709002 30.767003 34.023004 40.337 44 47.058 56.440999 61.940999 64.999 71.522 77.429 83.952 89.859 93.522 96.98701 106.37001 112.27701 118.393009 121.85801">hours for my department.</tspan></text>
<text xml:space="preserve" transform="matrix(1 0 -0 1 72 93.349)" font-size="11" font-family="HelveticaNeue"><tspan y="0" x="124.91601">&#x000a;</tspan></text>
<text xml:space="preserve" transform="matrix(1 0 -0 1 72 118.29401)" font-size="11" font-family="HelveticaNeue" font-weight="bold"><tspan y="0" x="0 5.5 11.814 18.128 24.442002 30.965003 37.279005 40.546">Teacher,</tspan></text>
<text xml:space="preserve" transform="matrix(1 0 -0 1 72 118.29401)" font-size="11" font-family="HelveticaNeue" font-weight="bold"><tspan y="0" x="43.604"> </tspan></text>
<text xml:space="preserve" transform="matrix(1 0 -0 1 72 118.29401)" font-size="11" font-family="HelveticaNeue" font-weight="bold"><tspan y="0" x="46.662 53.999 61.743 71.72 76.197 83.325 91.476">YBM-ECC</tspan></text>
<text xml:space="preserve" transform="matrix(1 0 -0 1 72 118.29401)" font-size="11" font-family="HelveticaNeue"><tspan y="0" x="99.627 102.685 109.812999 115.71999 122.034 128.15 130.592 133.65 136.708 143.836 150.15 156.26599 159.73099 165.84699 168.90499 176.24199 182.55599 186.02098 191.92798 197.83498 200.89298 207.00897 213.12497 219.24097 225.35697 229.63597 235.75197 241.86797 247.98397"> Seoul, South Korea 2009-2011</tspan></text>
<text xml:space="preserve" transform="matrix(1 0 -0 1 72 118.29401)" font-size="11" font-family="HelveticaNeue"><tspan y="0" x="254.09996">&#x000a;</tspan></text>
<text xml:space="preserve" transform="matrix(1 0 -0 1 72 130.349)" font-size="11" font-family="HelveticaNeue"><tspan y="0" x="0 9.581 15.081 18.139 24.662 28.325 30.767 40.15 46.057004 49.72 55.22 58.278 61.743 68.057 70.499 76.406 79.464 85.579998 91.48699 94.951999 100.85899 103.91699 112.25499 118.16199 123.66199 126.719989 130.18498 136.09198 141.99898 147.90598 154.02198 156.46398 162.57997 168.89397 171.95197 178.67296 184.78896 191.10295 193.54496 195.98696 201.48696 207.60295 210.66095 214.12595 220.43994 223.49794 229.61394 235.52094 238.98593 241.42794 246.92794 252.83493 255.89293 263.22993 269.5439 273.0089 278.91593 284.82295 290.93894 293.99696 299.49696 306.01997 311.92698 317.83399 323.543 329.45 333.113 338.613 341.67103 344.72904 347.57804 350.63606 354.10105 360.00807 366.12406 372.43806 378.55406 382.01905 385.07707 390.57707 396.48408 400.14707 402.58906 408.90306 415.01905 420.51905 423.57707 429.48408 435.79808 441.70509">My primary role here was teaching English to native Korean speakers. I taught various age </tspan></text>
<text xml:space="preserve" transform="matrix(1 0 -0 1 72 142.349)" font-size="11" font-family="HelveticaNeue"><tspan y="0" x="0 6.314 9.779 16.093 22.209002 28.732003 34.232004 37.29 40.348 46.255 52.371004 58.894006 61.952005 67.452 73.161 75.603008 78.045009 80.48701 83.545009 85.98701 91.894008 97.394008 103.301 105.743007 111.243007 114.301 117.359 125.103008 131.01001 136.51001 138.95201 145.266 151.382 153.824 159.94 166.254 169.312 175.219 178.68399 184.59099 190.49799 193.96298 196.40499 201.90499 207.81198 210.86998 213.31198 219.21898 224.71898 230.21898 236.53298 242.64897 245.70697 252.22997 254.67197 260.57899 266.69499 272.19499 275.253 281.16 287.276 293.799 296.85704 302.76405 305.20603 311.11305 316.61305 322.11305 325.57804 331.89204 338.20603 347.58903 350.64704 360.03004 365.93705 372.05305 377.96006 384.27406 390.18107 399.56407 405.47108 411.58708 415.05207 418.11009 424.6331 427.07508 432.9821 438.4821 444.3891 450.9121 453.97013 459.87715">groups, and skill levels. Designing creative lesson plans and classroom management played a </tspan></text>
<text xml:space="preserve" transform="matrix(1 0 -0 1 72 154.349)" font-size="11" font-family="HelveticaNeue"><tspan y="0" x="0 5.7090008 11.616001 17.116002 20.174002 23.639002 29.953003 32.395006 38.302007 41.360006 43.802007 49.918008 52.976007 59.49901 62.96401 69.27801 74.77801 77.22001 83.74301 86.18501 92.30101 98.61501 101.67301 107.58001 110.63801 117.16101 120.626018 126.94002 133.46302 139.57901 145.48601 148.951 151.393 156.893 162.8 165.858 168.3 174.207 180.114 183.97499 190.09099 192.53299 198.64899 204.96298 208.02098 213.92798 220.04398 225.54398 227.98598 231.45098 237.76497 243.88097 253.26396 259.17097 265.28697 268.75196 271.80998 275.06599 281.37998 285.04298 288.10099 293.60099 297.06599 303.18199 309.705 315.612 321.728 325.193 330.693 333.751 336.80903 345.169 351.285 354.75 360.25 362.692 369.215 375.122 378.18003 384.49403 387.75004 390.80805 394.27305 400.38905 406.29606 409.35408 415.26109 417.70307 423.61009 429.11009 434.61009 438.07508 444.38908 450.70307 460.08607 463.14408 465.99308">key role in providing a productive learning environment for students. Outside of the classroom I </tspan></text>
<text xml:space="preserve" transform="matrix(1 0 -0 1 72 166.349)" font-size="11" font-family="HelveticaNeue"><tspan y="0" x="0 8.338 14.245001 19.745 22.803002 28.710001 31.768002 34.210004 36.652006 42.559007 45.001008 50.501008 56.815008 62.931009 65.989009 69.45401 75.76801 78.82601 82.08201 88.39601 91.861019 97.76801 100.210018 106.52402 112.640018 115.69801 119.16302 125.070018 130.97702 136.88402 143.00002 148.90702 152.57 158.07 161.128 164.384 167.849 174.163 183.54599 186.60399 190.06899 196.18498 202.09198 205.14998 213.09198 216.14998 223.27799 226.33599 229.39398 235.30098 241.41698 247.93997 250.99797 256.90498 263.42799 266.89299 273.20698 279.11399 285.637">was a liaison to foreign teachers from the U.S. and abroad.</tspan></text>
<text xml:space="preserve" transform="matrix(1 0 -0 1 72 166.349)" font-size="11" font-family="HelveticaNeue"><tspan y="0" x="288.695">&#x000a;</tspan></text>
<text xml:space="preserve" transform="matrix(1 0 -0 1 72 197.50428)" font-size="15.2" font-family="Helvetica" font-weight="bold"><tspan y="0" x="0 10.138401 18.592642 22.8152 27.037762 31.260323 39.714567 43.937128 48.190088 52.412649 60.57657 69.03081 77.48505 86.76921 96.053379 105.33754 109.560108 118.84427 128.12844 132.351 140.80524">Skills | Technologies</tspan></text>
<text xml:space="preserve" transform="matrix(1 0 -0 1 72 210.349)" font-size="11" font-family="HelveticaNeue"><tspan y="0" x="0 8.349001 10.791001 14.256001 22.198002 28.314003 34.837007 37.895006 40.953004 47.069005 49.511007 55.627008 61.743009 67.44101 70.49901 73.55701 79.26601 86.394008 94.754009 102.69601 105.754009 108.812007 114.521 121.649 130.009 137.951 141.009 148.544 155.67201 163.61402 166.67201 169.73001 177.67201 183.78801 189.695 193.16 201.509 208.63701 213.73001 216.78801 219.84601 226.567 232.474 238.59 245.11299 251.01999 256.52 262.229 265.28703 268.34504 276.28703 282.19404 289.32203 292.78703 299.101 304.799 309.48503 312.54304 315.60105 321.31007 327.21708 332.71708 338.62409 345.75209 351.6591 355.32209 357.76408 364.28709 367.75209 370.8101 373.8681 381.6121 387.5191 390.9841 396.8911 403.41413 409.72813 416.0421 419.10014">GitHub, Linux, JSON, JSON RPC, ChatGPT, Zendesk, HaProxy, JavaScript, Datadog, </tspan></text>
<text xml:space="preserve" transform="matrix(1 0 -0 1 72 222.349)" font-size="11" font-family="HelveticaNeue"><tspan y="0" x="0 7.942001 14.0580019 19.965003 23.430003 31.779004 38.907007 44.000005 47.058004 50.116 57.244005 60.709005 67.023 73.546009 79.662 85.569 89.034008 95.55701 101.87101 107.77801 111.24301 117.766017 120.82401 123.88201 133.46302 139.37001 142.835 148.742 155.265 161.172 166.672 172.579 175.637 178.69499 185.823 188.265 194.172 200.079 205.788 208.846 211.90399 219.032 224.532 227.997 234.11299 240.42699 246.54299 249.60099 252.65898 260.60099 266.91499 276.49598 282.61198 285.66999 291.577 297.693 304.216 307.27403 315.216 322.344 329.472 332.53 335.588 340.89 344.355 350.669 356.785 363.308 365.75 371.657 377.157 383.273 389.587 395.901 399.366 402.424 409.552 417.494 420.552 426.459 432.575 439.09803 442.15605 451.73704 457.64405 463.55107 466.60908">ChatGPT, Productboard, Metabase, Slack, Python, HTML and CSS, Troubleshoot PC and Mac, </tspan></text>
<text xml:space="preserve" transform="matrix(1 0 -0 1 72 234.349)" font-size="11" font-family="HelveticaNeue"><tspan y="0" x="0 7.1280004 10.593 16.907002 22.407002 24.849 30.349 32.791 39.105 45.221 48.279 56.617 62.931 66.594 72.303 77.803 81.268009 87.175 90.64001 93.08201 99.39601 105.51201 111.01201 114.07001 117.326007 123.64001 127.30301 130.36101 136.477 142.384 150.722 153.78 159.896 165.396 171.303 174.96599 180.46599 183.52399 186.58199 189.02399 195.13999 200.63999 204.10498 210.01198 212.45398 214.89598 217.33798 223.45398 229.76798 232.82598 238.73297 241.17498 243.61698 246.67498 252.79097 258.69798 264.60499 270.512 276.012 281.512 287.419 291.082 296.582 299.64 305.14 311.454 314.71003 318.17503 326.51304 332.42005 335.88505 341.79206 344.85008 347.90809 353.8151 360.1291 366.2451 372.36109 378.2681 384.1751 387.6401 390.0821 396.3961 402.5121 405.5701 409.0351 415.3491 418.4071 424.9301 431.2441 440.6271 446.53413 448.9761 455.0921">Provision workstations for new users, installing all necessary software, connection to domain </tspan></text>
<text xml:space="preserve" transform="matrix(1 0 -0 1 72 246.349)" font-size="11" font-family="HelveticaNeue"><tspan y="0" x="0 5.907 12.023001 18.546002 21.604002 27.511002 33.627004 39.534006 43.197008 48.697008 55.22001 58.68501 61.12701 67.44101 73.55701 76.615009 82.115009 88.231 94.138 100.254 103.312 109.218997 114.718997 117.77699 125.312 127.754 131.219 133.661 139.97499 145.88199 151.59099 157.49799 160.14899 163.20699 166.26499 172.17198 178.28798 184.81098 187.86898 195.61298 201.51998 207.01998 209.46198 215.77597 221.68297 227.39197 230.44997 233.50797">and encryption such as Bitlocker, and Deslock, O</tspan></text>
<text xml:space="preserve" transform="matrix(1 0 -0 1 72 246.349)" font-size="11" font-family="HelveticaNeue"><tspan y="0" x="241.868">&#xfb03;</tspan></text>
<text xml:space="preserve" transform="matrix(1 0 -0 1 72 246.349)" font-size="11" font-family="HelveticaNeue"><tspan y="0" x="250.657 256.564 262.471 265.52903 271.64503 277.76103 283.877 286.93504 294.06303 300.58604 309.96903 312.411 318.527 320.969 326.469 329.934 333.597 339.504 342.969 345.41099 351.72499 357.84098 360.899 366.806 372.922 379.445 382.50303 389.631 395.945 404.28303 410.19004 413.85304 419.35304 425.46903 431.37605 433.81803 436.26 439.31803 442.37605 450.31803 455.81803 461.72505">ce 365 Administration and Powershell, Use </tspan></text>
<text xml:space="preserve" transform="matrix(1 0 -0 1 72 258.349)" font-size="11" font-family="HelveticaNeue"><tspan y="0" x="0 6.314 9.57 12.628 18.535 24.651001 28.116002 34.43 43.813 49.72 53.185 55.627004 61.941 68.057 71.115 74.58 80.894008 87.20801 89.65001 95.15001 98.20801 101.464008 107.77801 111.44101 114.49901 121.02201 124.487018 130.80101 136.30101 138.74301 144.24301 146.68502 152.99901 159.115 161.557 167.673 173.987 177.045 185.383 191.69699 195.35999 201.06899 206.56899 210.03398 215.94098 219.40598 221.84798 228.16197 234.27797 239.77797 242.83597 248.33597 254.45197 260.35899 266.47499 269.533 277.47499 279.91697 286.23097 292.34696 298.25398 303.53398 305.97596 308.41795 310.85993 316.76695 319.82496 322.88298 330.82496 336.94096 343.25495 349.16197 355.47596 357.91795 363.82496 367.28996 373.19697 377.88298 380.94099 383.999 391.12699 397.034 400.499 402.94099 408.44099 414.348 417.406 425.15 427.59199 431.05699 436.964 442.871 446.336 452.65 456.313 460.999 464.057">of automation tools for provisioning workstations such Clonezilla, Chocolatey, Active Directory, </tspan></text>
<text xml:space="preserve" transform="matrix(1 0 -0 1 72 270.349)" font-size="11" font-family="HelveticaNeue"><tspan y="0" x="0 5.907 9.372 15.278999 21.185999 24.651 27.092999 33.209 39.523 42.580999 45.638998 51.754999 58.278 64.801 70.708 74.173007 76.615009 82.731 89.045009 92.103008 95.161 100.661 106.568 110.033008 113.49801 115.94001 122.05601 128.37001 131.42801 134.684 140.998 143.44 149.963 155.87 159.53299 162.59099 169.11399 175.02098 178.68398 188.06697 190.50897 196.00897 201.50897 203.95098 210.26497 216.38097 221.88097 224.93897 227.99697 231.46196 233.90396 239.81096 245.51996 251.42696 254.89196 257.33396 263.44996 269.76396 272.82197 278.32197 284.63597 287.89198 291.35697 299.69499 305.602 309.067 314.974 318.032 321.09004 328.21803 334.334 337.799 344.113 347.578 353.48503 358.98503 364.69404 367.75205 373.65907 379.77507 386.29808 389.35609 397.29808 403.61207 409.72807 415.84407 421.75108 427.65809 431.12309 439.4611 441.90309 447.40309 453.3101 456.3681">creating, updating, setting folder permissions, ticketing software, Autotask and Connectwise, </tspan></text>
<text xml:space="preserve" transform="matrix(1 0 -0 1 72 282.349)" font-size="11" font-family="HelveticaNeue"><tspan y="0" x="0 7.1280004 13.035 16.5 19.558 25.674002 32.197004 35.255 41.162004 47.278005 53.801004 56.859 62.161 65.626 71.94 78.056 84.579 87.021 92.928 98.428 104.544 110.858 117.172008 120.63701 123.69501 130.416 137.544 145.48601 148.544 151.602 158.73001 164.63701 168.102 171.16 177.276 183.799 186.857 192.76399 198.87999 205.40299 208.46099 211.92598 215.39098 221.70497 227.82097 234.34397 236.78597 242.69297 248.19297 254.30896 260.62297 266.93696 270.40196 273.45997 280.58796 289.97096 295.87797 301.15797 307.47196 313.58796 316.64598 324.98399 331.29798 334.96098 340.66999 346.16999 349.63499 355.542 359.007 361.44898 367.76298 373.87898 379.37898 382.43699 385.495 390.797 394.262 400.576 406.692 413.215 415.65699 421.564 427.064 433.18 439.494 445.80799 449.27299">Set up and Troubleshoot VPN, Set up and troubleshoot Amazon workstations, Troubleshoot </tspan></text>
<text xml:space="preserve" transform="matrix(1 0 -0 1 72 294.349)" font-size="11" font-family="HelveticaNeue"><tspan y="0" x="0 9.581 16.709 19.767 28.127 34.243 37.708 40.15 46.464 52.778 58.487 61.545 64.603">MS Outlook, O</tspan></text>
<text xml:space="preserve" transform="matrix(1 0 -0 1 72 294.349)" font-size="11" font-family="HelveticaNeue"><tspan y="0" x="72.963">&#xfb03;</tspan></text>
<text xml:space="preserve" transform="matrix(1 0 -0 1 72 294.349)" font-size="11" font-family="HelveticaNeue"><tspan y="0" x="81.752 87.659 93.565998 96.62399 102.73999 108.85599 114.971988 118.02998 121.08798 123.93698 130.05298 133.51798 139.42498 143.08797 152.47097 158.37796 164.90096 167.34296 173.24996 176.30796 179.36595 185.48195 191.79595 194.23795 200.14495 206.05194 212.36594 217.86594 223.77294 227.43593 230.49393 233.34293 240.47093 243.52893 249.43593 255.55193 262.07493 265.13294 272.26094 275.10993 280.26893 283.32695 286.38496 295.96595 301.87297 305.53596 311.44297 317.15199 319.59397 322.65199 329.77998 336.90797 339.96598 345.46598 348.524 354.024 359.931 363.396 366.454 372.57 379.09303 382.15104 388.05805 394.17405 400.69706 403.75508 413.13807 419.04508 425.16108 431.06809 437.38209 443.2891 446.3471">ce 365, Intermedia, Voiceover IP and SIP, Meraki AP's set up and manage, </tspan></text>
<text xml:space="preserve" transform="matrix(1 0 -0 1 72 306.349)" font-size="11" font-family="HelveticaNeue"><tspan y="0" x="0 7.942001 14.465002 16.907002 23.430003 29.546004 31.988003 35.453004 40.953004 44.011 51.953004 58.069005">Ubiquity Uni</tspan></text>
<text xml:space="preserve" transform="matrix(1 0 -0 1 72 306.349)" font-size="11" font-family="HelveticaNeue"><tspan y="0" x="60.511">&#xfb01;</tspan></text>
<text xml:space="preserve" transform="matrix(1 0 -0 1 72 306.349)" font-size="11" font-family="HelveticaNeue"><tspan y="0" x="66.209 69.267 76.395 82.301998 85.767 88.825 94.940998 101.464 104.521999 110.42899 116.54499 123.06799 126.12599 132.64899 138.55599 145.07898 147.52098 153.83498 159.33498 162.39298 168.29998 174.20697 180.11397 186.02097 191.52097 197.02097 200.07897 206.60196 212.91596 215.35796 221.47396 224.93895 230.43895 233.49695 236.55495 244.49695 247.96195 253.86894 259.77595 263.24095 269.14796 272.20597 277.70597 283.61299 289.72898 295.636 305.01899 310.926 314.391 316.83299 322.74 328.24 331.298 337.612 340.868 343.92604 350.04203 355.94905 359.41404 367.75205 374.06605 377.72904 383.43806 386.49607 392.40309 395.86808 401.7751 407.89109 410.33308 413.79808 419.70509 425.6121 429.0771 435.19309 438.65809 444.5651 447.6231"> Set up and deploy access points, Create schematics of network architecture, </tspan></text>
<text xml:space="preserve" transform="matrix(1 0 -0 1 72 318.349)" font-size="11" font-family="HelveticaNeue"><tspan y="0" x="0 5.302 8.767 15.081 21.197 27.720002 30.162 36.069 41.569 47.685 53.999 60.313 63.778 66.836 74.778 80.278 86.801 92.708 95.766 100.045 106.766 109.824 115.730998 121.84699 128.37 131.428 139.37 141.812 145.277 148.93999 151.38199 157.07999 160.13799 163.60298 169.50998 178.89298 185.20697 188.67197 194.57897 197.63697 204.15996 210.06696 215.56696 221.27596 224.74095 231.05495 237.57794 240.63594 243.69394 250.41493 259.99595 268.33396 274.24098 277.70597 283.61299 286.671 289.729 296.45 301.95 308.47303 314.58903 320.49604 323.96104 329.86805 332.92607 335.98408 342.50709 344.94908 348.61207 352.07707 358.19306 364.10008 366.54206 373.06507 379.37907 385.07707 388.13508 391.19309 397.9141 403.4141 409.1121 411.55409 414.6121 417.6701 424.7981 430.7051 434.1701 437.22813 443.34413 449.86714">Troubleshoot Hyper-V and Citrix remote desktop, VMware, Vsphere, Virtualbox, Esxi, Set up </tspan></text>
<text xml:space="preserve" transform="matrix(1 0 -0 1 72 330.349)" font-size="11" font-family="HelveticaNeue"><tspan y="0" x="0 9.581 16.709 19.767 26.895 32.802003 36.465005 41.965005 47.872007 51.535005 54.593004 60.709005 66.825008 72.941 79.057 82.115 90.057 97.185 100.243 107.370998 110.836 117.15 119.592 122.034008 127.941 134.057 137.522 140.58 143.638 150.766 156.673 160.138 163.196 169.312 175.83499 178.89299 185.00899 190.91599 194.38098 202.71898 209.03298 212.69597 218.40497 221.46297 226.96297 230.42797 236.74196 240.40496 246.31195 252.62595 258.53297 261.59098 264.847 271.16099 274.82398 277.882 283.789 289.905 296.428 299.48603 305.60203 311.10203 317.00904 320.67204 326.17204 329.23005 332.28807 339.62507 345.53208 351.03208 356.9391 362.4391 368.3461 371.4041 374.46214 380.36915 386.48515 393.00816 396.06617 403.19416 409.31016 412.77516 419.08915 422.55415 428.46116 433.96116 439.67018">MS Server 2012 HP Prolient, Set up network storage for end users, Kaseya, and Autotask </tspan></text>
<text xml:space="preserve" transform="matrix(1 0 -0 1 72 342.349)" font-size="11" font-family="HelveticaNeue"><tspan y="0" x="0 6.721 12.837001 19.36 25.883002 32.197004 34.639005 40.755006 44.220006 47.278005 56.859006 62.766008 68.882 74.789 81.103008 87.01 96.393009 102.3 108.416 111.881008 114.939 117.997 120.846 127.16 130.218 136.125 142.032 151.415 157.32199 160.98499 166.89199 169.94998 172.39199 178.50798 184.00798 187.47298 193.37998 195.82198 198.26398 204.17098 207.63597 210.07798 216.39197 222.50797">Endpoint Management, IT camera installation.</tspan></text>
<text xml:space="preserve" transform="matrix(1 0 -0 1 72 342.349)" font-size="11" font-family="HelveticaNeue"><tspan y="0" x="225.56597">&#x000a;</tspan></text>
<text xml:space="preserve" transform="matrix(1 0 -0 1 72 377.5043)" font-size="15.2" font-family="Helvetica" font-weight="bold"><tspan y="0" x="0 10.977441 19.431683 23.654244 32.108488 40.562726 49.016965 58.301126 63.362726 67.58529 78.56273 87.01697 92.93281 97.99441">Relevant Certi</tspan></text>
<text xml:space="preserve" transform="matrix(1 0 -0 1 72 377.5043)" font-size="15.2" font-family="Helvetica" font-weight="bold"><tspan y="0" x="102.2141">&#xfb01;</tspan></text>
<text xml:space="preserve" transform="matrix(1 0 -0 1 72 377.5043)" font-size="15.2" font-family="Helvetica" font-weight="bold"><tspan y="0" x="111.4988 119.95304 128.40727 133.46887 137.69144 146.9756 156.25977">cations</tspan></text>
<text xml:space="preserve" transform="matrix(1 0 -0 1 72 391.4702)" font-size="11" font-family="Helvetica"><tspan y="0" x="0">&#x2022;</tspan></text>
<text xml:space="preserve" transform="matrix(1 0 -0 1 78.54545 391.4702)" font-size="11" font-family="Helvetica"><tspan y="0" x="0 8.5558 14.674001 20.7922 26.9104 29.354599 35.4728 38.5286 45.8656 49.528604 55.646806 58.091009 64.209209 69.709209 72.76501 75.82081 84.98381 91.102008 97.2202 103.338397 109.45659 115.57478 124.737789 130.85599 136.97418">Google Project Management</tspan></text>
<text xml:space="preserve" transform="matrix(1 0 -0 1 72 404.4702)" font-size="11" font-family="Helvetica"><tspan y="0" x="0">&#x2022;</tspan></text>
<text xml:space="preserve" transform="matrix(1 0 -0 1 78.54545 404.4702)" font-size="11" font-family="Helvetica"><tspan y="0" x="0 6.934401 17.316203 24.653203 27.709004 35.653207 41.771409 45.43441 48.490209">AWS Certi</tspan></text>
<text xml:space="preserve" transform="matrix(1 0 -0 1 78.54545 404.4702)" font-size="11" font-family="Helvetica"><tspan y="0" x="50.93408">&#xfb01;</tspan></text>
<text xml:space="preserve" transform="matrix(1 0 -0 1 78.54545 404.4702)" font-size="11" font-family="Helvetica"><tspan y="0" x="56.43408 62.55228 68.67048 71.72628 79.67048 82.11468 88.23287 94.35107 100.46926 103.52506 110.86206 114.52506 120.64326 126.14326 129.19907 131.64327 134.69907 137.14327 143.26146 149.37966 155.49785">ed Cloud Practitioner</tspan></text>
<text xml:space="preserve" transform="matrix(1 0 -0 1 72 417.4702)" font-size="11" font-family="Helvetica"><tspan y="0" x="0">&#x2022;</tspan></text>
<text xml:space="preserve" transform="matrix(1 0 -0 1 78.54545 417.4702)" font-size="11" font-family="Helvetica"><tspan y="0" x="0 10.381801 12.826001 18.9442 25.0624 31.180602 39.1248 44.6248 47.6806 55.0176 61.135805 64.798809 70.298809 76.417 80.08 82.5341 89.8711 95.989299 105.1523 107.5965 113.71469 116.15889 121.65889 124.71469 128.37769 134.49588 137.55168 139.99588 146.11408 152.23227 155.28807 162.00687 168.12506 174.24326 180.36145 186.47965 195.64264 201.76084 207.87903 210.93483 217.05303 219.49723 224.99723 228.05303 234.17122 240.28942 243.95241 250.0706 256.1888">Windows Server Administration Fundamentals 98-365</tspan></text>
<text xml:space="preserve" transform="matrix(1 0 -0 1 72 430.4702)" font-size="11" font-family="Helvetica"><tspan y="0" x="0">&#x2022;</tspan></text>
<text xml:space="preserve" transform="matrix(1 0 -0 1 78.54545 430.4702)" font-size="11" font-family="Helvetica"><tspan y="0" x="0 7.944201 14.062402 23.225403 29.343604 36.0624 39.1182 45.8535 48.3076 55.6446 62.0686 65.124408 71.2426 77.360797 83.47899 87.14199 93.260189 99.37838">CompTIA A+ 220-801</tspan></text>
<text xml:space="preserve" transform="matrix(1 0 -0 1 72 443.4702)" font-size="11" font-family="Helvetica"><tspan y="0" x="0">&#x2022;</tspan></text>
<text xml:space="preserve" transform="matrix(1 0 -0 1 78.54545 443.4702)" font-size="11" font-family="Helvetica"><tspan y="0" x="0 7.944201 10.388401 15.888401 21.388401 27.506602 30.562403 38.506605 44.624807 48.287805 51.3436">Cisco Certi</tspan></text>
<text xml:space="preserve" transform="matrix(1 0 -0 1 78.54545 443.4702)" font-size="11" font-family="Helvetica"><tspan y="0" x="53.78613">&#xfb01;</tspan></text>
<text xml:space="preserve" transform="matrix(1 0 -0 1 78.54545 443.4702)" font-size="11" font-family="Helvetica"><tspan y="0" x="59.28613 65.40433 71.52252 74.57832 82.52252 88.64072 91.69652 99.64072 105.75891 109.42191 114.92191 117.376018 124.71301 130.21302 135.71302 141.8312 147.3312 149.7754 155.8936 158.9494">ed Network Associate</tspan></text>
</g>
</svg>
